# xmcd CD database file
# Copyright (C) 1997 Ti Kan
# 
# Track frame offsets:
#     150
#     12150
#     25707
#     37290
#     50350
#     74130
#     94577
#     137865
#     155062
#     164895
# 
# Disc length: 2543 seconds
# 
# Revision: 1
# Processed by: cddbd v1.4b41PL1 Copyright (c) Steve Scherf et al.
# Submitted via: DiscPlay 4.0.4
# 
DISCID=9009ed0a
DTITLE=King Biscuit Boy - Badly Bent - The Best Of King Biscuit Boy
DYEAR=1900
DGENRE=
TTITLE0=Twenty-Nine Ways
TTITLE1=I'm Writing You A Letter
TTITLE2=I'm Just A Lonely Guy
TTITLE3=I'm Gone
TTITLE4=Hoy Hoy Hoy
TTITLE5=Corrina, Corrina
TTITLE6=Biscuits Boogie
TTITLE7=Mean Old Lady
TTITLE8=Badly Bent
TTITLE9=You Done Tore Your Play House Down
EXTD=
EXTT0=
EXTT1=
EXTT2=
EXTT3=
EXTT4=
EXTT5=
EXTT6=
EXTT7=
EXTT8=
EXTT9=
PLAYORDER=
